<svg width="25" height="27" viewBox="0 0 25 27" fill="none" xmlns="http://www.w3.org/2000/svg">
<path d="M17.383 26.4255C16.6936 26.4255 16.234 25.966 16.234 25.2766V20.7958C16.3489 19.8766 16.0042 19.1872 15.4298 18.6128C15.0851 18.2681 14.9702 17.8085 15.2 17.4638C15.3149 17.0043 15.7744 16.7745 16.1191 16.6596C19.451 16.3149 22.5532 15.166 22.5532 9.76598C22.5532 8.50215 22.0936 7.23832 21.1744 6.20428C20.8298 5.8596 20.8298 5.40003 20.9447 5.05535C21.2893 4.1362 21.2893 3.21705 21.0595 2.2979C20.4851 2.4128 19.5659 2.75748 18.0723 3.79152C17.8425 4.0213 17.4978 4.0213 17.1532 3.90641C14.7404 3.21705 12.0979 3.21705 9.68509 3.90641C9.34041 4.0213 8.99573 4.0213 8.65105 3.79152C7.27233 2.75748 6.23829 2.4128 5.66382 2.2979C5.43403 3.21705 5.43403 4.1362 5.77871 5.05535C5.89361 5.51492 5.89361 5.97449 5.54892 6.20428C4.62978 7.23832 4.1702 8.50215 4.1702 9.76598C4.1702 15.166 7.27233 16.3149 10.6042 16.6596C11.0638 16.6596 11.4085 17.0043 11.5234 17.4638C11.6383 17.9234 11.5234 18.383 11.2936 18.6128C10.7191 19.1872 10.4893 19.8766 10.4893 20.6809V21.7149V21.8298V25.1617C10.4893 25.8511 10.0298 26.3106 9.34041 26.3106C8.65105 26.3106 8.19148 25.8511 8.19148 25.1617V23.2085C4.74467 23.783 3.25105 21.8298 2.21701 20.566C1.75744 19.9915 1.41276 19.5319 0.953185 19.417C0.378717 19.3021 -0.0808566 18.6128 0.14893 18.0383C0.263824 17.4638 0.953185 17.0043 1.52765 17.2341C2.67659 17.5787 3.36595 18.383 4.05531 19.1872C4.97446 20.4511 5.77871 21.3702 8.19148 20.9106V20.7958C8.19148 20.1064 8.30637 19.3021 8.53616 18.7277C5.31914 18.0383 1.87233 15.9702 1.87233 9.88087C1.87233 8.15747 2.4468 6.54896 3.48084 5.28513C3.02127 3.67662 3.13616 2.18301 3.82552 0.689394C3.94042 0.344713 4.1702 0.114926 4.51488 3.27725e-05C4.97446 -0.114861 6.46807 -0.344648 9.5702 1.60854C12.0979 1.03407 14.7404 1.03407 17.1532 1.60854C20.1404 -0.344648 21.7489 -0.114861 22.2085 3.27725e-05C22.5532 0.114926 22.7829 0.344713 22.8978 0.689394C23.4723 2.18301 23.5872 3.67662 23.2425 5.17024C24.2766 6.43407 24.851 8.04258 24.851 9.76598C24.851 16.3149 20.9447 18.0383 18.1872 18.7277C18.417 19.417 18.5319 20.2213 18.5319 20.9106V25.2766C18.5319 25.966 18.0723 26.4255 17.383 26.4255Z" fill="#25B1F9"/>
</svg>
